<svg width="25" height="20" viewBox="0 0 25 20" fill="none" xmlns="http://www.w3.org/2000/svg">
<path d="M21.8357 4.97995C21.8454 5.19995 21.8454 5.40995 21.8454 5.62995C21.855 12.3 16.9545 20 7.9928 20C5.34962 20 2.75468 19.21 0.526306 17.73C0.912171 17.78 1.29804 17.8 1.6839 17.8C3.87369 17.8 6.00559 17.04 7.73234 15.63C5.64867 15.59 3.81581 14.18 3.17913 12.12C3.91227 12.27 4.66471 12.24 5.37856 12.03C3.1116 11.57 1.48132 9.49997 1.47168 7.08996C1.47168 7.06996 1.47168 7.04996 1.47168 7.02996C2.14694 7.41996 2.90902 7.63996 3.68075 7.65996C1.54885 6.17996 0.883231 3.22995 2.17588 0.919939C4.65506 4.07995 8.30149 5.98995 12.218 6.19996C11.8225 4.44995 12.3627 2.60994 13.6264 1.36994C15.5847 -0.540066 18.6716 -0.440065 20.5238 1.58994C21.6138 1.36994 22.6653 0.949939 23.6203 0.359937C23.2538 1.52994 22.4917 2.51994 21.4788 3.14995C22.4434 3.02995 23.3888 2.75994 24.2763 2.35994C23.6203 3.37995 22.7907 4.25995 21.8357 4.97995Z" fill="#FB4552"/>
</svg>
