<svg width="21" height="20" viewBox="0 0 21 20" fill="none" xmlns="http://www.w3.org/2000/svg">
<path d="M10.2743 1.80194C12.9455 1.80194 13.2591 1.81385 14.3148 1.86148C15.2912 1.90514 15.8191 2.06787 16.1723 2.20679C16.6407 2.38936 16.9741 2.60369 17.3234 2.95297C17.6726 3.30224 17.8909 3.63564 18.0695 4.10399C18.2045 4.45723 18.3712 4.98512 18.4148 5.9615C18.4625 7.01727 18.4744 7.33082 18.4744 10.002C18.4744 12.6732 18.4625 12.9867 18.4148 14.0425C18.3712 15.0189 18.2085 15.5467 18.0695 15.9C17.887 16.3683 17.6726 16.7017 17.3234 17.051C16.9741 17.4003 16.6407 17.6186 16.1723 17.7972C15.8191 17.9321 15.2912 18.0988 14.3148 18.1425C13.2591 18.1901 12.9455 18.202 10.2743 18.202C7.60316 18.202 7.28961 18.1901 6.23384 18.1425C5.25746 18.0988 4.72957 17.9361 4.37633 17.7972C3.90798 17.6146 3.57458 17.4003 3.22531 17.051C2.87603 16.7017 2.65773 16.3683 2.47913 15.9C2.34418 15.5467 2.17748 15.0189 2.13382 14.0425C2.08619 12.9867 2.07428 12.6732 2.07428 10.002C2.07428 7.33082 2.08619 7.01727 2.13382 5.9615C2.17748 4.98512 2.34021 4.45723 2.47913 4.10399C2.6617 3.63564 2.87603 3.30224 3.22531 2.95297C3.57458 2.60369 3.90798 2.38539 4.37633 2.20679C4.72957 2.07184 5.25746 1.90514 6.23384 1.86148C7.28961 1.80988 7.60713 1.80194 10.2743 1.80194ZM10.2743 0C7.5595 0 7.21817 0.0119071 6.15049 0.0595356C5.08679 0.107164 4.36045 0.277833 3.72541 0.523914C3.06655 0.777932 2.51088 1.12324 1.95521 1.6789C1.39955 2.23457 1.05821 2.79421 0.80022 3.4491C0.554139 4.08414 0.38347 4.81048 0.335842 5.87815C0.288213 6.94185 0.276306 7.28319 0.276306 9.99802C0.276306 12.7128 0.288213 13.0542 0.335842 14.1219C0.38347 15.1856 0.554139 15.9119 0.80022 16.5509C1.05424 17.2098 1.39955 17.7654 1.95521 18.3211C2.51088 18.8768 3.07051 19.2181 3.72541 19.4761C4.36045 19.7222 5.08679 19.8928 6.15446 19.9405C7.22214 19.9881 7.5595 20 10.2783 20C12.9971 20 13.3345 19.9881 14.4021 19.9405C15.4658 19.8928 16.1922 19.7222 16.8312 19.4761C17.4901 19.2221 18.0457 18.8768 18.6014 18.3211C19.1571 17.7654 19.4984 17.2058 19.7564 16.5509C20.0025 15.9159 20.1731 15.1895 20.2208 14.1219C20.2684 13.0542 20.2803 12.7168 20.2803 9.99802C20.2803 7.27922 20.2684 6.94185 20.2208 5.87418C20.1731 4.81048 20.0025 4.08414 19.7564 3.44513C19.5024 2.78627 19.1571 2.2306 18.6014 1.67494C18.0457 1.11927 17.4861 0.777932 16.8312 0.519944C16.1961 0.273864 15.4698 0.103195 14.4021 0.0555666C13.3305 0.0119071 12.9892 0 10.2743 0Z" fill="#FB4552"/>
<path d="M10.2743 4.86605C7.44043 4.86605 5.13838 7.16412 5.13838 10.002C5.13838 12.8398 7.43646 15.1379 10.2743 15.1379C13.1122 15.1379 15.4103 12.8398 15.4103 10.002C15.4103 7.16412 13.1122 4.86605 10.2743 4.86605ZM10.2743 13.332C8.43269 13.332 6.94033 11.8396 6.94033 9.99801C6.94033 8.15638 8.43269 6.66402 10.2743 6.66402C12.116 6.66402 13.6083 8.15638 13.6083 9.99801C13.6083 11.8396 12.116 13.332 10.2743 13.332Z" fill="#FB4552"/>
<path d="M15.6127 5.85831C16.2747 5.85831 16.8113 5.32165 16.8113 4.65966C16.8113 3.99766 16.2747 3.461 15.6127 3.461C14.9507 3.461 14.414 3.99766 14.414 4.65966C14.414 5.32165 14.9507 5.85831 15.6127 5.85831Z" fill="#FB4552"/>
</svg>
