<svg width="744" height="67" viewBox="0 0 744 67" fill="none" xmlns="http://www.w3.org/2000/svg">
<path d="M0.44 65L-2.50174 64.4117L-3.21941 68H0.44V65ZM13.04 2V-1H10.5806L10.0983 1.41165L13.04 2ZM57.32 5.24L56.0628 7.96387L56.0694 7.96691L56.076 7.96991L57.32 5.24ZM68.21 14.42L65.679 16.0306L65.6846 16.0394L65.6903 16.0481L68.21 14.42ZM69.11 43.58L71.8636 44.7707L71.8665 44.764L71.8693 44.7573L69.11 43.58ZM61.01 55.1L63.0337 57.3146L63.044 57.3052L63.0543 57.2957L61.01 55.1ZM48.59 62.48L49.5811 65.3116L49.5968 65.3061L49.6124 65.3004L48.59 62.48ZM21.14 50.78L18.1971 50.1975L17.4881 53.78H21.14V50.78ZM44.54 47.99L46.0982 50.5536L46.0982 50.5536L44.54 47.99ZM51.56 40.43L54.2331 41.7918L54.2382 41.7817L54.2433 41.7716L51.56 40.43ZM52.19 22.34L49.5901 23.8369L49.6069 23.8661L49.6244 23.8949L52.19 22.34ZM46.97 17.84L45.6857 20.5512L45.7282 20.5713L45.7712 20.5901L46.97 17.84ZM27.98 16.22V13.22H25.5156L25.0371 15.6375L27.98 16.22ZM3.38174 65.5883L15.9817 2.58834L10.0983 1.41165L-2.50174 64.4117L3.38174 65.5883ZM13.04 5H40.4V-1H13.04V5ZM40.4 5C46.6833 5 51.8712 6.02928 56.0628 7.96387L58.5772 2.51612C53.4088 0.130714 47.3167 -1 40.4 -1V5ZM56.076 7.96991C60.3478 9.91657 63.5043 12.6133 65.679 16.0306L70.741 12.8094C67.8757 8.30675 63.7722 4.88343 58.564 2.51008L56.076 7.96991ZM65.6903 16.0481C67.845 19.3829 68.99 23.4742 68.99 28.46H74.99C74.99 22.5258 73.615 17.2571 70.7298 12.7919L65.6903 16.0481ZM68.99 28.46C68.99 33.6919 68.0911 38.3236 66.3507 42.4027L71.8693 44.7573C73.9689 39.8364 74.99 34.3881 74.99 28.46H68.99ZM66.3564 42.3893C64.598 46.4557 62.1371 49.9517 58.9657 52.9043L63.0543 57.2957C66.8429 53.7683 69.782 49.5843 71.8636 44.7707L66.3564 42.3893ZM58.9863 52.8854C55.8205 55.7783 52.0283 58.0426 47.5676 59.6596L49.6124 65.3004C54.7517 63.4374 59.2396 60.7817 63.0337 57.3146L58.9863 52.8854ZM47.5989 59.6484C43.1598 61.2021 38.1905 62 32.66 62V68C38.7695 68 44.4202 67.1179 49.5811 65.3116L47.5989 59.6484ZM32.66 62H0.44V68H32.66V62ZM21.14 53.78H33.2V47.78H21.14V53.78ZM33.2 53.78C38.1098 53.78 42.462 52.7638 46.0982 50.5536L42.9818 45.4264C40.498 46.9362 37.2902 47.78 33.2 47.78V53.78ZM46.0982 50.5536C49.6325 48.4053 52.3594 45.4699 54.2331 41.7918L48.8869 39.0682C47.5206 41.7501 45.5675 43.8547 42.9818 45.4264L46.0982 50.5536ZM54.2433 41.7716C56.0935 38.0711 56.99 33.974 56.99 29.54H50.99C50.99 33.146 50.2665 36.3089 48.8767 39.0884L54.2433 41.7716ZM56.99 29.54C56.99 26.2913 56.2959 23.3267 54.7556 20.7851L49.6244 23.8949C50.4841 25.3133 50.99 27.1487 50.99 29.54H56.99ZM54.7899 20.8431C53.2918 18.2412 51.0255 16.3352 48.1688 15.0899L45.7712 20.5901C47.5945 21.3848 48.8082 22.4788 49.5901 23.8369L54.7899 20.8431ZM48.2543 15.1288C45.4566 13.8036 42.1346 13.22 38.42 13.22V19.22C41.5454 19.22 43.9234 19.7164 45.6857 20.5512L48.2543 15.1288ZM38.42 13.22H27.98V19.22H38.42V13.22ZM25.0371 15.6375L18.1971 50.1975L24.0829 51.3625L30.9229 16.8024L25.0371 15.6375ZM74.7955 65L71.8537 64.4117L71.1361 68H74.7955V65ZM87.3955 2V-1H84.9361L84.4537 1.41165L87.3955 2ZM105.215 2L108.157 2.58834L108.875 -1H105.215V2ZM92.6155 65V68H95.0749L95.5572 65.5883L92.6155 65ZM77.7372 65.5883L90.3372 2.58834L84.4537 1.41165L71.8537 64.4117L77.7372 65.5883ZM87.3955 5H105.215V-1H87.3955V5ZM102.274 1.41165L89.6737 64.4117L95.5572 65.5883L108.157 2.58834L102.274 1.41165ZM92.6155 62H74.7955V68H92.6155V62ZM122.934 62.75L121.606 65.4401L121.612 65.4434L121.619 65.4466L122.934 62.75ZM111.864 53.03L109.307 54.6003L109.32 54.6217L109.334 54.643L111.864 53.03ZM110.874 23.42L113.644 24.5713L113.644 24.5713L110.874 23.42ZM119.064 11.45L121.129 13.6259L121.138 13.6168L121.148 13.6076L119.064 11.45ZM131.664 3.53L130.603 0.723809L130.591 0.728182L131.664 3.53ZM164.334 3.71L163.139 6.46178L163.145 6.46462L163.152 6.46743L164.334 3.71ZM175.494 12.35L177.351 14.7055L179.644 12.8969L177.898 10.5561L175.494 12.35ZM162.714 22.43L160.387 24.3238L162.252 26.615L164.571 24.7855L162.714 22.43ZM155.874 17.03L157.023 14.2588L157.023 14.2588L155.874 17.03ZM138.414 17.12L137.278 14.3434L137.266 14.348L137.255 14.3527L138.414 17.12ZM131.754 21.71L129.567 19.656L129.567 19.656L131.754 21.71ZM127.434 28.73L124.627 27.6698L124.621 27.6872L124.614 27.7048L127.434 28.73ZM127.884 44.84L125.292 46.3516L125.302 46.3676L125.311 46.3835L127.884 44.84ZM133.374 49.79L132.032 52.4733L132.059 52.4868L132.086 52.4998L133.374 49.79ZM150.024 50.15L149.035 47.3174L149.025 47.321L149.015 47.3248L150.024 50.15ZM157.764 45.65L160.428 44.2717L158.732 40.9932L155.87 43.3233L157.764 45.65ZM164.514 58.7L166.299 61.1107L168.352 59.5904L167.178 57.3217L164.514 58.7ZM153.264 64.28L154.151 67.1456L154.151 67.1456L153.264 64.28ZM149.304 55.91L146.362 55.3195L145.762 58.3104L148.762 58.8608L149.304 55.91ZM154.074 32.15V29.15H151.616L151.132 31.5595L154.074 32.15ZM169.824 32.15L172.765 32.7383L173.483 29.15H169.824V32.15ZM164.514 58.7L163.972 61.6508L166.876 62.1835L167.455 59.2883L164.514 58.7ZM139.674 63.26C133.683 63.26 128.568 62.1591 124.248 60.0534L121.619 65.4466C126.899 68.0209 132.944 69.26 139.674 69.26V63.26ZM124.262 60.0599C119.974 57.9432 116.716 55.0596 114.393 51.417L109.334 54.643C112.291 59.2804 116.413 62.8768 121.606 65.4401L124.262 60.0599ZM114.42 51.4597C112.161 47.7819 110.994 43.5072 110.994 38.54H104.994C104.994 44.4928 106.407 49.8781 109.307 54.6003L114.42 51.4597ZM110.994 38.54C110.994 33.4388 111.889 28.7943 113.644 24.5713L108.103 22.2687C106.018 27.2857 104.994 32.7212 104.994 38.54H110.994ZM113.644 24.5713C115.407 20.3284 117.901 16.69 121.129 13.6259L116.998 9.27408C113.147 12.93 110.18 17.2716 108.103 22.2687L113.644 24.5713ZM121.148 13.6076C124.381 10.4842 128.231 8.05581 132.736 6.33181L130.591 0.728182C125.376 2.72419 120.826 5.57584 116.979 9.29242L121.148 13.6076ZM132.724 6.33616C137.261 4.62102 142.356 3.74 148.044 3.74V-2.26C141.732 -2.26 135.906 -1.28103 130.603 0.723833L132.724 6.33616ZM148.044 3.74C154.038 3.74 159.042 4.683 163.139 6.46178L165.528 0.958209C160.505 -1.22301 154.649 -2.26 148.044 -2.26V3.74ZM163.152 6.46743C167.32 8.25364 170.606 10.815 173.089 14.1439L177.898 10.5561C174.742 6.32496 170.587 3.12636 165.515 0.952561L163.152 6.46743ZM173.636 9.9945L160.856 20.0745L164.571 24.7855L177.351 14.7055L173.636 9.9945ZM165.04 20.5362C162.703 17.6651 160.042 15.5109 157.023 14.2588L154.724 19.8012C156.625 20.5891 158.524 22.0349 160.387 24.3238L165.04 20.5362ZM157.023 14.2588C154.122 13.0563 150.837 12.5 147.234 12.5V18.5C150.231 18.5 152.705 18.9637 154.724 19.8012L157.023 14.2588ZM147.234 12.5C143.657 12.5 140.324 13.0972 137.278 14.3434L139.549 19.8966C141.783 18.9828 144.33 18.5 147.234 18.5V12.5ZM137.255 14.3527C134.298 15.5906 131.724 17.3594 129.567 19.656L133.94 23.764C135.503 22.1006 137.369 20.8094 139.572 19.8873L137.255 14.3527ZM129.567 19.656C127.42 21.9409 125.778 24.6244 124.627 27.6698L130.24 29.7902C131.129 27.4356 132.367 25.4391 133.94 23.764L129.567 19.656ZM124.614 27.7048C123.522 30.7077 122.994 33.9388 122.994 37.37H128.994C128.994 34.5612 129.425 32.0323 130.253 29.7552L124.614 27.7048ZM122.994 37.37C122.994 40.6519 123.732 43.6765 125.292 46.3516L130.475 43.3284C129.515 41.6835 128.994 39.7281 128.994 37.37H122.994ZM125.311 46.3835C126.892 49.0191 129.172 51.0435 132.032 52.4733L134.715 47.1067C132.775 46.1365 131.395 44.8609 130.456 43.2965L125.311 46.3835ZM132.086 52.4998C134.987 53.8775 138.362 54.5 142.104 54.5V48.5C139.005 48.5 136.56 47.9825 134.661 47.0802L132.086 52.4998ZM142.104 54.5C145.196 54.5 148.179 53.9945 151.033 52.9752L149.015 47.3248C146.829 48.1055 144.531 48.5 142.104 48.5V54.5ZM151.012 52.9826C153.983 51.9459 156.864 50.2504 159.657 47.9767L155.87 43.3233C153.503 45.2496 151.224 46.5541 149.035 47.3174L151.012 52.9826ZM155.099 47.0283L161.849 60.0783L167.178 57.3217L160.428 44.2717L155.099 47.0283ZM162.728 56.2893C159.787 58.468 156.347 60.1839 152.376 61.4144L154.151 67.1456C158.7 65.7361 162.76 63.732 166.299 61.1107L162.728 56.2893ZM152.376 61.4144C148.424 62.6388 144.195 63.26 139.674 63.26V69.26C144.752 69.26 149.583 68.5612 154.151 67.1456L152.376 61.4144ZM152.245 56.5005L157.015 32.7405L151.132 31.5595L146.362 55.3195L152.245 56.5005ZM154.074 35.15H169.824V29.15H154.074V35.15ZM166.882 31.5617L161.572 58.1117L167.455 59.2883L172.765 32.7383L166.882 31.5617ZM165.055 55.7492L149.845 52.9592L148.762 58.8608L163.972 61.6508L165.055 55.7492ZM174.551 65L171.61 64.4117L170.892 68H174.551V65ZM187.151 2V-1H184.692L184.21 1.41165L187.151 2ZM204.971 2L207.913 2.58834L208.631 -1H204.971V2ZM192.371 65V68H194.831L195.313 65.5883L192.371 65ZM177.493 65.5883L190.093 2.58834L184.21 1.41165L171.61 64.4117L177.493 65.5883ZM187.151 5H204.971V-1H187.151V5ZM202.03 1.41165L189.43 64.4117L195.313 65.5883L207.913 2.58834L202.03 1.41165ZM192.371 62H174.551V68H192.371V62ZM218.369 65L215.428 64.4096L214.707 68H218.369V65ZM228.179 16.13L231.121 16.7204L231.841 13.13H228.179V16.13ZM208.829 16.13L205.89 15.5308L205.156 19.13H208.829V16.13ZM211.709 2V-1H209.259L208.77 1.40085L211.709 2ZM268.139 2L271.079 2.59914L271.813 -1H268.139V2ZM265.259 16.13V19.13H267.71L268.199 16.7291L265.259 16.13ZM245.999 16.13V13.13H243.542L243.058 15.5396L245.999 16.13ZM236.189 65V68H238.647L239.131 65.5904L236.189 65ZM221.311 65.5904L231.121 16.7204L225.238 15.5396L215.428 64.4096L221.311 65.5904ZM228.179 13.13H208.829V19.13H228.179V13.13ZM211.769 16.7291L214.649 2.59914L208.77 1.40085L205.89 15.5308L211.769 16.7291ZM211.709 5H268.139V-1H211.709V5ZM265.2 1.40085L262.32 15.5309L268.199 16.7291L271.079 2.59914L265.2 1.40085ZM265.259 13.13H245.999V19.13H265.259V13.13ZM243.058 15.5396L233.248 64.4096L239.131 65.5904L248.941 16.7204L243.058 15.5396ZM236.189 62H218.369V68H236.189V62ZM262.178 65L259.237 64.4117L258.519 68H262.178V65ZM274.778 2V-1H272.319L271.837 1.41165L274.778 2ZM292.598 2L295.54 2.58834L296.258 -1H292.598V2ZM279.998 65V68H282.458L282.94 65.5883L279.998 65ZM265.12 65.5883L277.72 2.58834L271.837 1.41165L259.237 64.4117L265.12 65.5883ZM274.778 5H292.598V-1H274.778V5ZM289.657 1.41165L277.057 64.4117L282.94 65.5883L295.54 2.58834L289.657 1.41165ZM279.998 62H262.178V68H279.998V62ZM289.436 65L286.496 64.4071L285.771 68H289.436V65ZM291.686 53.84L289.595 51.689L288.929 52.3365L288.746 53.2471L291.686 53.84ZM336.956 9.83L339.872 9.122L338.632 4.01712L334.865 7.67895L336.956 9.83ZM338.486 16.13V19.13H342.302L341.402 15.422L338.486 16.13ZM300.146 16.13L297.203 15.5489L296.496 19.13H300.146V16.13ZM302.936 2V-1H300.471L299.993 1.41886L302.936 2ZM357.206 2L360.147 2.5929L360.872 -1H357.206V2ZM354.956 13.16L357.048 15.311L357.714 14.6635L357.897 13.7529L354.956 13.16ZM309.686 57.17L306.771 57.878L308.011 62.9829L311.778 59.321L309.686 57.17ZM308.156 50.87V47.87H304.341L305.241 51.578L308.156 50.87ZM348.746 50.87L351.686 51.4691L352.419 47.87H348.746V50.87ZM345.866 65V68H348.317L348.806 65.5991L345.866 65ZM292.377 65.5929L294.627 54.4329L288.746 53.2471L286.496 64.4071L292.377 65.5929ZM293.778 55.991L339.048 11.981L334.865 7.67895L289.595 51.689L293.778 55.991ZM334.041 10.538L335.571 16.838L341.402 15.422L339.872 9.122L334.041 10.538ZM338.486 13.13H300.146V19.13H338.486V13.13ZM303.09 16.7111L305.88 2.58113L299.993 1.41886L297.203 15.5489L303.09 16.7111ZM302.936 5H357.206V-1H302.936V5ZM354.266 1.40709L352.016 12.5671L357.897 13.7529L360.147 2.5929L354.266 1.40709ZM352.865 11.009L307.595 55.019L311.778 59.321L357.048 15.311L352.865 11.009ZM312.602 56.462L311.072 50.162L305.241 51.578L306.771 57.878L312.602 56.462ZM308.156 53.87H348.746V47.87H308.156V53.87ZM345.807 50.2709L342.927 64.4009L348.806 65.5991L351.686 51.4691L345.807 50.2709ZM345.866 62H289.436V68H345.866V62ZM353.76 65L350.819 64.4117L350.101 68H353.76V65ZM366.36 2V-1H363.901L363.419 1.41165L366.36 2ZM384.18 2L387.122 2.58834L387.84 -1H384.18V2ZM371.58 65V68H374.04L374.522 65.5883L371.58 65ZM356.702 65.5883L369.302 2.58834L363.419 1.41165L350.819 64.4117L356.702 65.5883ZM366.36 5H384.18V-1H366.36V5ZM381.239 1.41165L368.639 64.4117L374.522 65.5883L387.122 2.58834L381.239 1.41165ZM371.58 62H353.76V68H371.58V62ZM384.258 65L381.317 64.4117L380.599 68H384.258V65ZM396.858 2V-1H394.399L393.917 1.41165L396.858 2ZM411.528 2L414.095 0.447644L413.22 -1H411.528V2ZM436.998 44.12L436.91 47.1187L442.415 47.2806L439.566 42.5676L436.998 44.12ZM430.878 43.94L427.936 43.3529L427.242 46.8343L430.79 46.9387L430.878 43.94ZM439.248 2V-1H436.788L436.306 1.41286L439.248 2ZM456.708 2L459.65 2.58834L460.368 -1H456.708V2ZM444.108 65V68H446.568L447.05 65.5883L444.108 65ZM429.438 65L426.869 66.5483L427.744 68H429.438V65ZM404.058 22.88L404.148 19.8813L398.65 19.7172L401.489 24.4283L404.058 22.88ZM410.088 23.06L413.03 23.6471L413.725 20.1672L410.178 20.0613L410.088 23.06ZM401.718 65V68H404.179L404.66 65.5871L401.718 65ZM387.2 65.5883L399.8 2.58834L393.917 1.41165L381.317 64.4117L387.2 65.5883ZM396.858 5H411.528V-1H396.858V5ZM408.961 3.55235L434.431 45.6724L439.566 42.5676L414.095 0.447644L408.961 3.55235ZM437.087 41.1213L430.967 40.9413L430.79 46.9387L436.91 47.1187L437.087 41.1213ZM433.82 44.5271L442.19 2.58713L436.306 1.41286L427.936 43.3529L433.82 44.5271ZM439.248 5H456.708V-1H439.248V5ZM453.767 1.41165L441.167 64.4117L447.05 65.5883L459.65 2.58834L453.767 1.41165ZM444.108 62H429.438V68H444.108V62ZM432.008 63.4517L406.628 21.3317L401.489 24.4283L426.869 66.5483L432.008 63.4517ZM403.969 25.8787L409.999 26.0587L410.178 20.0613L404.148 19.8813L403.969 25.8787ZM407.146 22.4729L398.776 64.4129L404.66 65.5871L413.03 23.6471L407.146 22.4729ZM401.718 62H384.258V68H401.718V62ZM474.408 62.75L473.08 65.4401L473.087 65.4434L473.094 65.4466L474.408 62.75ZM463.338 53.03L460.782 54.6003L460.795 54.6217L460.809 54.643L463.338 53.03ZM462.348 23.42L465.118 24.5713L465.118 24.5713L462.348 23.42ZM470.538 11.45L472.603 13.6259L472.613 13.6168L472.623 13.6076L470.538 11.45ZM483.138 3.53L482.077 0.723809L482.066 0.728182L483.138 3.53ZM515.808 3.71L514.613 6.46178L514.62 6.46462L514.626 6.46743L515.808 3.71ZM526.968 12.35L528.826 14.7055L531.119 12.8969L529.373 10.5561L526.968 12.35ZM514.188 22.43L511.861 24.3238L513.726 26.615L516.046 24.7855L514.188 22.43ZM507.348 17.03L508.497 14.2588L508.497 14.2588L507.348 17.03ZM489.888 17.12L488.752 14.3434L488.741 14.348L488.73 14.3527L489.888 17.12ZM483.228 21.71L481.042 19.656L481.042 19.656L483.228 21.71ZM478.908 28.73L476.102 27.6698L476.095 27.6872L476.089 27.7048L478.908 28.73ZM479.358 44.84L476.767 46.3516L476.776 46.3676L476.786 46.3835L479.358 44.84ZM484.848 49.79L483.506 52.4733L483.534 52.4868L483.561 52.4998L484.848 49.79ZM501.498 50.15L500.51 47.3174L500.5 47.321L500.489 47.3248L501.498 50.15ZM509.238 45.65L511.903 44.2717L510.207 40.9932L507.344 43.3233L509.238 45.65ZM515.988 58.7L517.774 61.1107L519.826 59.5904L518.653 57.3217L515.988 58.7ZM504.738 64.28L505.626 67.1456L505.626 67.1456L504.738 64.28ZM500.778 55.91L497.837 55.3195L497.236 58.3104L500.237 58.8608L500.778 55.91ZM505.548 32.15V29.15H503.091L502.607 31.5595L505.548 32.15ZM521.298 32.15L524.24 32.7383L524.958 29.15H521.298V32.15ZM515.988 58.7L515.447 61.6508L518.351 62.1835L518.93 59.2883L515.988 58.7ZM491.148 63.26C485.158 63.26 480.042 62.1591 475.723 60.0534L473.094 65.4466C478.374 68.0209 484.419 69.26 491.148 69.26V63.26ZM475.736 60.0599C471.448 57.9432 468.19 55.0596 465.868 51.417L460.809 54.643C463.766 59.2804 467.888 62.8768 473.08 65.4401L475.736 60.0599ZM465.894 51.4597C463.635 47.7819 462.468 43.5072 462.468 38.54H456.468C456.468 44.4928 457.881 49.8781 460.782 54.6003L465.894 51.4597ZM462.468 38.54C462.468 33.4388 463.363 28.7943 465.118 24.5713L459.578 22.2687C457.493 27.2857 456.468 32.7212 456.468 38.54H462.468ZM465.118 24.5713C466.882 20.3284 469.375 16.69 472.603 13.6259L468.473 9.27408C464.621 12.93 461.655 17.2716 459.578 22.2687L465.118 24.5713ZM472.623 13.6076C475.856 10.4842 479.706 8.05581 484.21 6.33181L482.066 0.728182C476.85 2.72419 472.301 5.57584 468.454 9.29242L472.623 13.6076ZM484.199 6.33616C488.736 4.62102 493.83 3.74 499.518 3.74V-2.26C493.206 -2.26 487.38 -1.28103 482.077 0.723833L484.199 6.33616ZM499.518 3.74C505.513 3.74 510.517 4.683 514.613 6.46178L517.003 0.958209C511.98 -1.22301 506.123 -2.26 499.518 -2.26V3.74ZM514.626 6.46743C518.794 8.25364 522.08 10.815 524.564 14.1439L529.373 10.5561C526.216 6.32496 522.062 3.12636 516.99 0.952561L514.626 6.46743ZM525.11 9.9945L512.33 20.0745L516.046 24.7855L528.826 14.7055L525.11 9.9945ZM516.515 20.5362C514.178 17.6651 511.517 15.5109 508.497 14.2588L506.199 19.8012C508.099 20.5891 509.998 22.0349 511.861 24.3238L516.515 20.5362ZM508.497 14.2588C505.597 13.0563 502.311 12.5 498.708 12.5V18.5C501.705 18.5 504.179 18.9637 506.199 19.8012L508.497 14.2588ZM498.708 12.5C495.131 12.5 491.798 13.0972 488.752 14.3434L491.024 19.8966C493.258 18.9828 495.805 18.5 498.708 18.5V12.5ZM488.73 14.3527C485.772 15.5906 483.199 17.3594 481.042 19.656L485.415 23.764C486.977 22.1006 488.844 20.8094 491.047 19.8873L488.73 14.3527ZM481.042 19.656C478.895 21.9409 477.252 24.6244 476.102 27.6698L481.715 29.7902C482.604 27.4356 483.841 25.4391 485.415 23.764L481.042 19.656ZM476.089 27.7048C474.997 30.7077 474.468 33.9388 474.468 37.37H480.468C480.468 34.5612 480.899 32.0323 481.728 29.7552L476.089 27.7048ZM474.468 37.37C474.468 40.6519 475.206 43.6765 476.767 46.3516L481.949 43.3284C480.99 41.6835 480.468 39.7281 480.468 37.37H474.468ZM476.786 46.3835C478.367 49.0191 480.647 51.0435 483.506 52.4733L486.19 47.1067C484.249 46.1365 482.869 44.8609 481.931 43.2965L476.786 46.3835ZM483.561 52.4998C486.461 53.8775 489.836 54.5 493.578 54.5V48.5C490.48 48.5 488.035 47.9825 486.135 47.0802L483.561 52.4998ZM493.578 54.5C496.671 54.5 499.653 53.9945 502.507 52.9752L500.489 47.3248C498.303 48.1055 496.005 48.5 493.578 48.5V54.5ZM502.486 52.9826C505.458 51.9459 508.339 50.2504 511.132 47.9767L507.344 43.3233C504.978 45.2496 502.698 46.5541 500.51 47.3174L502.486 52.9826ZM506.573 47.0283L513.323 60.0783L518.653 57.3217L511.903 44.2717L506.573 47.0283ZM514.202 56.2893C511.261 58.468 507.822 60.1839 503.85 61.4144L505.626 67.1456C510.175 65.7361 514.235 63.732 517.774 61.1107L514.202 56.2893ZM503.85 61.4144C499.899 62.6388 495.67 63.26 491.148 63.26V69.26C496.226 69.26 501.057 68.5612 505.626 67.1456L503.85 61.4144ZM503.719 56.5005L508.489 32.7405L502.607 31.5595L497.837 55.3195L503.719 56.5005ZM505.548 35.15H521.298V29.15H505.548V35.15ZM518.356 31.5617L513.046 58.1117L518.93 59.2883L524.24 32.7383L518.356 31.5617ZM516.529 55.7492L501.319 52.9592L500.237 58.8608L515.447 61.6508L516.529 55.7492ZM565.537 65L562.596 64.4096L561.875 68H565.537V65ZM575.347 16.13L578.289 16.7204L579.009 13.13H575.347V16.13ZM555.997 16.13L553.058 15.5308L552.324 19.13H555.997V16.13ZM558.877 2V-1H556.427L555.938 1.40085L558.877 2ZM615.307 2L618.247 2.59914L618.98 -1H615.307V2ZM612.427 16.13V19.13H614.878L615.367 16.7291L612.427 16.13ZM593.167 16.13V13.13H590.71L590.226 15.5396L593.167 16.13ZM583.357 65V68H585.815L586.299 65.5904L583.357 65ZM568.479 65.5904L578.289 16.7204L572.406 15.5396L562.596 64.4096L568.479 65.5904ZM575.347 13.13H555.997V19.13H575.347V13.13ZM558.937 16.7291L561.817 2.59914L555.938 1.40085L553.058 15.5308L558.937 16.7291ZM558.877 5H615.307V-1H558.877V5ZM612.368 1.40085L609.488 15.5309L615.367 16.7291L618.247 2.59914L612.368 1.40085ZM612.427 13.13H593.167V19.13H612.427V13.13ZM590.226 15.5396L580.416 64.4096L586.299 65.5904L596.109 16.7204L590.226 15.5396ZM583.357 62H565.537V68H583.357V62ZM663.976 2V-1H661.517L661.035 1.41165L663.976 2ZM681.796 2L684.738 2.58834L685.456 -1H681.796V2ZM669.196 65V68H671.656L672.138 65.5883L669.196 65ZM651.376 65L648.435 64.4117L647.717 68H651.376V65ZM627.166 65V68H629.626L630.108 65.5883L627.166 65ZM609.346 65L606.405 64.4117L605.687 68H609.346V65ZM621.946 2V-1H619.487L619.005 1.41165L621.946 2ZM639.766 2L642.708 2.58834L643.426 -1H639.766V2ZM657.586 40.43V43.43H660.043L660.527 41.0218L657.586 40.43ZM630.856 40.43L627.915 39.8382L627.192 43.43H630.856V40.43ZM633.826 25.67V22.67H631.37L630.885 25.0782L633.826 25.67ZM660.556 25.67L663.497 26.2618L664.22 22.67H660.556V25.67ZM663.976 5H681.796V-1H663.976V5ZM678.855 1.41165L666.255 64.4117L672.138 65.5883L684.738 2.58834L678.855 1.41165ZM669.196 62H651.376V68H669.196V62ZM654.318 65.5883L666.918 2.58834L661.035 1.41165L648.435 64.4117L654.318 65.5883ZM627.166 62H609.346V68H627.166V62ZM612.288 65.5883L624.888 2.58834L619.005 1.41165L606.405 64.4117L612.288 65.5883ZM621.946 5H639.766V-1H621.946V5ZM636.825 1.41165L624.225 64.4117L630.108 65.5883L642.708 2.58834L636.825 1.41165ZM657.586 37.43H630.856V43.43H657.586V37.43ZM633.797 41.0218L636.767 26.2618L630.885 25.0782L627.915 39.8382L633.797 41.0218ZM633.826 28.67H660.556V22.67H633.826V28.67ZM657.615 25.0782L654.645 39.8382L660.527 41.0218L663.497 26.2618L657.615 25.0782ZM705.886 26.39V23.39H703.417L702.942 25.8131L705.886 26.39ZM735.136 26.39L738.08 26.9669L738.781 23.39H735.136V26.39ZM732.526 39.71V42.71H734.995L735.47 40.2869L732.526 39.71ZM703.276 39.71L700.332 39.1331L699.631 42.71H703.276V39.71ZM702.196 51.23L699.253 50.6474L698.544 54.23H702.196V51.23ZM735.226 51.23L738.162 51.8442L738.918 48.23H735.226V51.23ZM732.346 65V68H734.783L735.282 65.6142L732.346 65ZM681.856 65L678.914 64.4117L678.197 68H681.856V65ZM694.456 2V-1H691.997L691.514 1.41165L694.456 2ZM743.776 2L746.716 2.59573L747.445 -1H743.776V2ZM740.986 15.77V18.77H743.439L743.926 16.3657L740.986 15.77ZM709.216 15.77V12.77H706.752L706.273 15.1874L709.216 15.77ZM705.886 29.39H735.136V23.39H705.886V29.39ZM732.192 25.8131L729.582 39.1331L735.47 40.2869L738.08 26.9669L732.192 25.8131ZM732.526 36.71H703.276V42.71H732.526V36.71ZM706.22 40.2869L708.83 26.9669L702.942 25.8131L700.332 39.1331L706.22 40.2869ZM702.196 54.23H735.226V48.23H702.196V54.23ZM732.29 50.6158L729.41 64.3858L735.282 65.6142L738.162 51.8442L732.29 50.6158ZM732.346 62H681.856V68H732.346V62ZM684.798 65.5883L697.398 2.58834L691.514 1.41165L678.914 64.4117L684.798 65.5883ZM694.456 5H743.776V-1H694.456V5ZM740.836 1.40426L738.046 15.1743L743.926 16.3657L746.716 2.59573L740.836 1.40426ZM740.986 12.77H709.216V18.77H740.986V12.77ZM706.273 15.1874L699.253 50.6474L705.139 51.8126L712.159 16.3526L706.273 15.1874Z" fill="#FF0000"/>
</svg>
