<svg width="500" height="67" viewBox="0 0 500 67" fill="none" xmlns="http://www.w3.org/2000/svg">
<path d="M0.44 65L-2.50174 64.4117L-3.21941 68H0.44V65ZM13.04 2V-1H10.5806L10.0983 1.41165L13.04 2ZM30.86 2L33.8017 2.58834L34.5194 -1H30.86V2ZM18.26 65V68H20.7194L21.2017 65.5883L18.26 65ZM3.38174 65.5883L15.9817 2.58834L10.0983 1.41165L-2.50174 64.4117L3.38174 65.5883ZM13.04 5H30.86V-1H13.04V5ZM27.9183 1.41165L15.3183 64.4117L21.2017 65.5883L33.8017 2.58834L27.9183 1.41165ZM18.26 62H0.44V68H18.26V62ZM30.938 65L27.9963 64.4117L27.2786 68H30.938V65ZM43.538 2V-1H41.0786L40.5963 1.41165L43.538 2ZM58.208 2L60.7752 0.447643L59.8998 -1H58.208V2ZM83.6781 44.12L83.5899 47.1187L89.0951 47.2806L86.2452 42.5676L83.6781 44.12ZM77.5581 43.94L74.6161 43.3529L73.9213 46.8343L77.4699 46.9387L77.5581 43.94ZM85.928 2V-1H83.4676L82.9861 1.41286L85.928 2ZM103.388 2L106.33 2.58834L107.047 -1H103.388V2ZM90.7881 65V68H93.2475L93.7298 65.5883L90.7881 65ZM76.118 65L73.5485 66.5483L74.4232 68H76.118V65ZM50.738 22.88L50.8276 19.8813L45.3297 19.7172L48.1685 24.4283L50.738 22.88ZM56.768 23.06L59.71 23.6471L60.4045 20.1672L56.8576 20.0613L56.768 23.06ZM48.398 65V68H50.8585L51.34 65.5871L48.398 65ZM33.8798 65.5883L46.4798 2.58834L40.5963 1.41165L27.9963 64.4117L33.8798 65.5883ZM43.538 5H58.208V-1H43.538V5ZM55.6409 3.55235L81.1109 45.6723L86.2452 42.5676L60.7752 0.447643L55.6409 3.55235ZM83.7663 41.1213L77.6462 40.9413L77.4699 46.9387L83.5899 47.1187L83.7663 41.1213ZM80.5 44.5271L88.87 2.58713L82.9861 1.41286L74.6161 43.3529L80.5 44.5271ZM85.928 5H103.388V-1H85.928V5ZM100.446 1.41165L87.8463 64.4117L93.7298 65.5883L106.33 2.58834L100.446 1.41165ZM90.7881 62H76.118V68H90.7881V62ZM78.6876 63.4517L53.3076 21.3317L48.1685 24.4283L73.5485 66.5483L78.6876 63.4517ZM50.6485 25.8787L56.6785 26.0587L56.8576 20.0613L50.8276 19.8813L50.6485 25.8787ZM53.8261 22.4729L45.4561 64.4129L51.34 65.5871L59.71 23.6471L53.8261 22.4729ZM48.398 62H30.938V68H48.398V62ZM103.448 65L100.506 64.4117L99.7884 68H103.448V65ZM116.048 2V-1H113.588L113.106 1.41165L116.048 2ZM160.328 5.24L159.071 7.96387L159.077 7.96691L159.084 7.96991L160.328 5.24ZM171.218 14.42L168.687 16.0306L168.692 16.0394L168.698 16.0481L171.218 14.42ZM172.118 43.58L174.871 44.7707L174.874 44.764L174.877 44.7573L172.118 43.58ZM164.018 55.1L166.042 57.3146L166.052 57.3052L166.062 57.2957L164.018 55.1ZM151.598 62.48L152.589 65.3116L152.605 65.3061L152.62 65.3004L151.598 62.48ZM124.148 50.78L121.205 50.1975L120.496 53.78H124.148V50.78ZM147.548 47.99L149.106 50.5536L147.548 47.99ZM154.568 40.43L157.241 41.7918L157.246 41.7817L157.251 41.7716L154.568 40.43ZM155.198 22.34L152.598 23.8369L152.615 23.8661L152.632 23.8949L155.198 22.34ZM149.978 17.84L148.694 20.5512L148.736 20.5713L148.779 20.5901L149.978 17.84ZM130.988 16.22V13.22H128.523L128.045 15.6375L130.988 16.22ZM106.39 65.5883L118.99 2.58834L113.106 1.41165L100.506 64.4117L106.39 65.5883ZM116.048 5H143.408V-1H116.048V5ZM143.408 5C149.691 5 154.879 6.02928 159.071 7.96387L161.585 2.51612C156.417 0.130714 150.325 -1 143.408 -1V5ZM159.084 7.96991C163.356 9.91657 166.512 12.6133 168.687 16.0306L173.749 12.8094C170.883 8.30675 166.78 4.88343 161.572 2.51008L159.084 7.96991ZM168.698 16.0481C170.853 19.3829 171.998 23.4742 171.998 28.46H177.998C177.998 22.5258 176.623 17.2571 173.738 12.7919L168.698 16.0481ZM171.998 28.46C171.998 33.6919 171.099 38.3236 169.358 42.4027L174.877 44.7573C176.977 39.8364 177.998 34.3881 177.998 28.46H171.998ZM169.364 42.3893C167.606 46.4557 165.145 49.9517 161.974 52.9043L166.062 57.2957C169.851 53.7683 172.79 49.5843 174.871 44.7707L169.364 42.3893ZM161.994 52.8854C158.828 55.7783 155.036 58.0426 150.575 59.6596L152.62 65.3004C157.76 63.4374 162.247 60.7817 166.042 57.3146L161.994 52.8854ZM150.607 59.6484C146.168 61.2021 141.198 62 135.668 62V68C141.777 68 147.428 67.1179 152.589 65.3116L150.607 59.6484ZM135.668 62H103.448V68H135.668V62ZM124.148 53.78H136.208V47.78H124.148V53.78ZM136.208 53.78C141.118 53.78 145.47 52.7638 149.106 50.5536L145.99 45.4264C143.506 46.9362 140.298 47.78 136.208 47.78V53.78ZM149.106 50.5536C152.64 48.4053 155.367 45.4699 157.241 41.7918L151.895 39.0682C150.528 41.7501 148.575 43.8547 145.99 45.4264L149.106 50.5536ZM157.251 41.7716C159.101 38.0711 159.998 33.9739 159.998 29.54H153.998C153.998 33.146 153.274 36.3089 151.885 39.0884L157.251 41.7716ZM159.998 29.54C159.998 26.2913 159.304 23.3267 157.763 20.7851L152.632 23.8949C153.492 25.3133 153.998 27.1487 153.998 29.54H159.998ZM157.798 20.8431C156.3 18.2412 154.033 16.3352 151.177 15.0899L148.779 20.5901C150.602 21.3848 151.816 22.4788 152.598 23.8369L157.798 20.8431ZM151.262 15.1288C148.464 13.8036 145.142 13.22 141.428 13.22V19.22C144.553 19.22 146.931 19.7164 148.694 20.5512L151.262 15.1288ZM141.428 13.22H130.988V19.22H141.428V13.22ZM128.045 15.6375L121.205 50.1975L127.091 51.3624L133.931 16.8024L128.045 15.6375ZM192.653 62.66L191.137 65.2486L191.159 65.2614L191.181 65.2737L192.653 62.66ZM183.743 52.4L180.95 53.4946L180.955 53.5076L183.743 52.4ZM182.843 36.92L179.902 36.3287L179.9 36.3389L179.898 36.349L182.843 36.92ZM189.863 2V-1H187.406L186.922 1.40873L189.863 2ZM207.683 2L210.625 2.58834L211.343 -1H207.683V2ZM200.753 36.65L197.812 36.0616L197.809 36.0751L197.806 36.0887L200.753 36.65ZM200.303 43.22L197.317 43.509L200.303 43.22ZM201.833 47.9L199.337 49.5641L199.364 49.6043L199.392 49.6437L201.833 47.9ZM205.343 50.69L204.189 53.4592L204.258 53.4876L204.327 53.5127L205.343 50.69ZM217.043 50.06L218.455 52.7071L218.47 52.6988L218.486 52.6904L217.043 50.06ZM221.633 45.29L219.024 43.8092L219.017 43.8211L219.011 43.8331L221.633 45.29ZM224.513 36.65L221.572 36.0616L221.568 36.0809L221.564 36.1002L224.513 36.65ZM231.443 2V-1H228.984L228.502 1.41165L231.443 2ZM248.993 2L251.936 2.58549L252.649 -1H248.993V2ZM241.883 37.73L238.941 37.1445L238.941 37.1453L241.883 37.73ZM230.723 59.06L232.68 61.3343L232.687 61.3283L232.694 61.3222L230.723 59.06ZM208.493 63.26C202.564 63.26 197.825 62.1302 194.126 60.0463L191.181 65.2737C196.002 67.9898 201.823 69.26 208.493 69.26V63.26ZM194.169 60.0714C190.526 57.9375 188.016 55.0291 186.531 51.2924L180.955 53.5076C182.951 58.5309 186.38 62.4625 191.137 65.2486L194.169 60.0714ZM186.536 51.3054C185.051 47.5154 184.729 42.9548 185.788 37.491L179.898 36.349C178.677 42.6452 178.955 48.4046 180.95 53.4946L186.536 51.3054ZM185.784 37.5113L192.804 2.59126L186.922 1.40873L179.902 36.3287L185.784 37.5113ZM189.863 5H207.683V-1H189.863V5ZM204.742 1.41165L197.812 36.0616L203.695 37.2383L210.625 2.58834L204.742 1.41165ZM197.806 36.0887C197.291 38.7924 197.102 41.2817 197.317 43.509L203.289 42.931C203.145 41.4383 203.255 39.5476 203.7 37.2113L197.806 36.0887ZM197.317 43.509C197.534 45.7472 198.166 47.8076 199.337 49.5641L204.329 46.2359C203.82 45.4724 203.433 44.4128 203.289 42.931L197.317 43.509ZM199.392 49.6437C200.62 51.3625 202.237 52.6458 204.189 53.4592L206.497 47.9208C205.569 47.5342 204.847 46.9575 204.274 46.1563L199.392 49.6437ZM204.327 53.5127C206.23 54.1976 208.359 54.5 210.653 54.5V48.5C208.867 48.5 207.457 48.2624 206.359 47.8673L204.327 53.5127ZM210.653 54.5C213.505 54.5 216.14 53.9419 218.455 52.7071L215.632 47.4129C214.347 48.0981 212.722 48.5 210.653 48.5V54.5ZM218.486 52.6904C220.919 51.3561 222.827 49.3185 224.256 46.7469L219.011 43.8331C218.039 45.5815 216.887 46.7239 215.601 47.4296L218.486 52.6904ZM224.242 46.7708C225.719 44.1695 226.764 40.9435 227.462 37.1998L221.564 36.1002C220.942 39.4365 220.068 41.9705 219.024 43.8092L224.242 46.7708ZM227.455 37.2383L234.385 2.58834L228.502 1.41165L221.572 36.0616L227.455 37.2383ZM231.443 5H248.993V-1H231.443V5ZM246.051 1.4145L238.941 37.1445L244.826 38.3155L251.936 2.58549L246.051 1.4145ZM238.941 37.1453C237.172 46.0441 233.703 52.4861 228.753 56.7978L232.694 61.3222C238.903 55.9139 242.874 48.1359 244.826 38.3147L238.941 37.1453ZM228.767 56.7857C223.859 61.0073 217.204 63.26 208.493 63.26V69.26C218.262 69.26 226.427 66.7127 232.68 61.3343L228.767 56.7857ZM261.695 65.36L262.232 62.4084L262.206 62.4037L262.18 62.3994L261.695 65.36ZM252.695 63.02L251.581 65.8054L251.608 65.8162L251.635 65.8264L252.695 63.02ZM245.765 59.51L243.111 58.1113L241.84 60.5226L244.119 62.0181L245.765 59.51ZM252.785 46.19L254.35 43.6302L251.622 41.9632L250.131 44.7913L252.785 46.19ZM259.445 49.61L258.281 52.3749L258.324 52.3932L258.368 52.41L259.445 49.61ZM266.555 51.68L265.967 54.6217L266.555 51.68ZM279.605 51.77L280.358 54.674L280.408 54.661L280.457 54.6464L279.605 51.77ZM283.295 49.79L281.174 47.6687L283.295 49.79ZM282.845 43.85L281.089 46.282L281.164 46.3367L281.243 46.3865L282.845 43.85ZM278.525 41.87L277.663 44.7435L278.525 41.87ZM272.495 40.25L271.692 43.1406L271.739 43.1535L271.786 43.165L272.495 40.25ZM265.925 38.18L264.838 40.976L264.884 40.994L264.931 41.0104L265.925 38.18ZM259.985 35.12L258.265 37.5777L258.293 37.5972L258.321 37.6161L259.985 35.12ZM255.575 30.35L252.961 31.8208L252.978 31.8514L252.996 31.8816L255.575 30.35ZM268.085 3.53L266.952 0.752163L266.939 0.757498L268.085 3.53ZM296.795 2.18L296.078 5.09304L296.099 5.09826L296.121 5.10317L296.795 2.18ZM306.875 6.14L309.569 7.4596L310.766 5.0158L308.451 3.58689L306.875 6.14ZM300.395 19.37L298.789 21.9035L301.616 23.6968L303.089 20.6896L300.395 19.37ZM292.205 15.86L291.381 18.7446L291.416 18.7544L291.45 18.7635L292.205 15.86ZM276.905 15.41L276.016 12.5448L276.002 12.5493L275.987 12.5539L276.905 15.41ZM273.035 17.66L270.847 15.6082L270.842 15.613L273.035 17.66ZM273.395 23.69L275.152 21.258L273.395 23.69ZM277.715 25.67L276.853 28.5435L276.866 28.5473L276.879 28.551L277.715 25.67ZM283.745 27.38L282.942 30.2706L282.989 30.2835L283.036 30.295L283.745 27.38ZM290.315 29.36L289.296 32.1817L289.331 32.1943L289.367 32.206L290.315 29.36ZM296.345 32.33L294.663 34.8138L294.691 34.8326L294.719 34.8509L296.345 32.33ZM300.755 36.92L298.161 38.4264L300.755 36.92ZM298.685 55.64L301.106 57.4122L298.685 55.64ZM288.155 63.47L289.288 66.2478L288.155 63.47ZM272.045 63.26C268.612 63.26 265.342 62.9739 262.232 62.4084L261.159 68.3116C264.648 68.9461 268.278 69.26 272.045 69.26V63.26ZM262.18 62.3994C259.046 61.8866 256.243 61.1532 253.755 60.2136L251.635 65.8264C254.548 66.9268 257.744 67.7534 261.211 68.3206L262.18 62.3994ZM253.809 60.2346C251.249 59.2104 249.126 58.1274 247.411 57.0019L244.119 62.0181C246.244 63.4126 248.742 64.6697 251.581 65.8054L253.809 60.2346ZM248.419 60.9087L255.439 47.5887L250.131 44.7913L243.111 58.1113L248.419 60.9087ZM251.221 48.7498C253.506 50.1463 255.86 51.3553 258.281 52.3749L260.609 46.8451C258.471 45.9447 256.384 44.8737 254.35 43.6302L251.221 48.7498ZM258.368 52.41C260.863 53.3695 263.396 54.1076 265.967 54.6217L267.144 48.7383C264.914 48.2924 262.707 47.6505 260.522 46.81L258.368 52.41ZM265.967 54.6217C268.557 55.1397 271.154 55.4 273.755 55.4V49.4C271.557 49.4 269.354 49.1803 267.144 48.7383L265.967 54.6217ZM273.755 55.4C276.204 55.4 278.422 55.176 280.358 54.674L278.852 48.866C277.549 49.204 275.866 49.4 273.755 49.4V55.4ZM280.457 54.6464C282.367 54.0807 284.105 53.2226 285.417 51.9113L281.174 47.6687C280.805 48.0374 280.084 48.4993 278.753 48.8936L280.457 54.6464ZM285.417 51.9113C286.793 50.5351 287.555 48.7922 287.555 46.82H281.555C281.555 47.1278 281.478 47.3649 281.174 47.6687L285.417 51.9113ZM287.555 46.82C287.555 44.4469 286.384 42.5369 284.447 41.3135L281.243 46.3865C281.475 46.533 281.526 46.6269 281.528 46.6294C281.531 46.635 281.535 46.6431 281.54 46.6624C281.546 46.6832 281.555 46.7324 281.555 46.82H287.555ZM284.602 41.418C283.164 40.3796 281.387 39.5964 279.387 38.9965L277.663 44.7435C279.264 45.2236 280.367 45.7604 281.089 46.282L284.602 41.418ZM279.387 38.9965C277.527 38.4385 275.465 37.8849 273.204 37.335L271.786 43.165C273.965 43.6951 275.923 44.2215 277.663 44.7435L279.387 38.9965ZM273.298 37.3594C271.206 36.7782 269.08 36.1085 266.92 35.3496L264.931 41.0104C267.211 41.8115 269.465 42.5218 271.692 43.1406L273.298 37.3594ZM267.013 35.384C265.041 34.6172 263.256 33.6951 261.649 32.6238L258.321 37.6161C260.314 38.9449 262.49 40.0628 264.838 40.976L267.013 35.384ZM261.706 32.6623C260.26 31.6506 259.081 30.3783 258.155 28.8184L252.996 31.8816C254.349 34.1617 256.11 36.0694 258.265 37.5777L261.706 32.6623ZM258.19 28.8792C257.424 27.5171 256.955 25.686 256.955 23.24H250.955C250.955 26.434 251.567 29.3429 252.961 31.8208L258.19 28.8792ZM256.955 23.24C256.955 19.2535 258.018 15.9288 260.066 13.1322L255.225 9.58778C252.352 13.5112 250.955 18.1065 250.955 23.24H256.955ZM260.066 13.1322C262.149 10.2867 265.152 7.98837 269.231 6.3025L266.939 0.757498C262.018 2.79163 258.061 5.71327 255.225 9.58778L260.066 13.1322ZM269.218 6.3078C273.34 4.62672 278.308 3.74 284.195 3.74V-2.26C277.722 -2.26 271.951 -1.28673 266.952 0.752193L269.218 6.3078ZM284.195 3.74C288.482 3.74 292.439 4.19724 296.078 5.09304L297.512 -0.733046C293.351 -1.75725 288.908 -2.26 284.195 -2.26V3.74ZM296.121 5.10317C299.766 5.94448 302.809 7.15611 305.3 8.6931L308.451 3.58689C305.302 1.64389 301.624 0.215521 297.47 -0.743176L296.121 5.10317ZM304.181 4.82039L297.701 18.0504L303.089 20.6896L309.569 7.4596L304.181 4.82039ZM302.002 16.8365C299.262 15.0993 296.242 13.8099 292.96 12.9565L291.45 18.7635C294.168 19.4701 296.608 20.5207 298.789 21.9035L302.002 16.8365ZM293.029 12.9754C289.816 12.0573 286.508 11.6 283.115 11.6V17.6C285.962 17.6 288.715 17.9827 291.381 18.7446L293.029 12.9754ZM283.115 11.6C280.503 11.6 278.119 11.8923 276.016 12.5448L277.794 18.2752C279.172 17.8477 280.927 17.6 283.115 17.6V11.6ZM275.987 12.5539C273.981 13.1987 272.194 14.1712 270.847 15.6082L275.224 19.7118C275.677 19.2288 276.469 18.7013 277.823 18.2661L275.987 12.5539ZM270.842 15.613C269.529 17.02 268.775 18.7563 268.775 20.72H274.775C274.775 20.4037 274.862 20.0999 275.228 19.707L270.842 15.613ZM268.775 20.72C268.775 23.0001 269.878 24.8501 271.639 26.122L275.152 21.258C274.909 21.083 274.834 20.9627 274.814 20.9259C274.8 20.8999 274.775 20.8512 274.775 20.72H268.775ZM271.639 26.122C273.077 27.1604 274.854 27.9436 276.853 28.5435L278.577 22.7965C276.977 22.3164 275.874 21.7796 275.152 21.258L271.639 26.122ZM276.879 28.551C278.752 29.0947 280.773 29.6679 282.942 30.2706L284.548 24.4894C282.398 23.8921 280.399 23.3253 278.552 22.789L276.879 28.551ZM283.036 30.295C285.151 30.8094 287.237 31.4381 289.296 32.1817L291.334 26.5383C289.073 25.7219 286.78 25.0306 284.454 24.465L283.036 30.295ZM289.367 32.206C291.27 32.8406 293.033 33.7096 294.663 34.8138L298.028 29.8462C295.938 28.4304 293.68 27.3194 291.264 26.5139L289.367 32.206ZM294.719 34.8509C296.193 35.8017 297.326 36.9885 298.161 38.4264L303.35 35.4136C302.025 33.1315 300.218 31.2583 297.972 29.8091L294.719 34.8509ZM298.161 38.4264C298.91 39.7166 299.375 41.4722 299.375 43.85H305.375C305.375 40.7077 304.76 37.8433 303.35 35.4136L298.161 38.4264ZM299.375 43.85C299.375 47.7671 298.317 51.0642 296.265 53.8678L301.106 57.4122C303.973 53.4958 305.375 48.9329 305.375 43.85H299.375ZM296.265 53.8678C294.188 56.7039 291.163 59.0031 287.022 60.6922L289.288 66.2478C294.267 64.2169 298.262 61.2961 301.106 57.4122L296.265 53.8678ZM287.022 60.6922C282.901 62.3733 277.932 63.26 272.045 63.26V69.26C278.518 69.26 284.29 68.2867 289.288 66.2478L287.022 60.6922ZM319.268 65L316.326 64.4096L315.606 68H319.268V65ZM329.078 16.13L332.019 16.7204L332.74 13.13H329.078V16.13ZM309.728 16.13L306.788 15.5308L306.055 19.13H309.728V16.13ZM312.608 2V-1H310.158L309.668 1.40085L312.608 2ZM369.038 2L371.977 2.59914L372.711 -1H369.038V2ZM366.158 16.13V19.13H368.608L369.097 16.7291L366.158 16.13ZM346.898 16.13V13.13H344.44L343.956 15.5396L346.898 16.13ZM337.088 65V68H339.545L340.029 65.5904L337.088 65ZM322.209 65.5904L332.019 16.7204L326.136 15.5396L316.326 64.4096L322.209 65.5904ZM329.078 13.13H309.728V19.13H329.078V13.13ZM312.667 16.7291L315.547 2.59914L309.668 1.40085L306.788 15.5308L312.667 16.7291ZM312.608 5H369.038V-1H312.608V5ZM366.098 1.40085L363.218 15.5308L369.097 16.7291L371.977 2.59914L366.098 1.40085ZM366.158 13.13H346.898V19.13H366.158V13.13ZM343.956 15.5396L334.146 64.4096L340.029 65.5904L349.839 16.7204L343.956 15.5396ZM337.088 62H319.268V68H337.088V62ZM363.077 65L360.135 64.4117L359.417 68H363.077V65ZM375.677 2V-1H373.217L372.735 1.41165L375.677 2ZM421.307 7.31L419.421 9.64322L419.429 9.64948L419.436 9.65569L421.307 7.31ZM424.097 35.93L421.583 34.2923L421.577 34.3019L424.097 35.93ZM413.297 45.02L412.04 42.2961L413.297 45.02ZM376.307 48.26L374.419 45.9283L367.833 51.26H376.307V48.26ZM385.757 40.61L388.699 41.1963L390.321 33.0553L383.869 38.2783L385.757 40.61ZM380.897 65V68H383.358L383.839 65.5863L380.897 65ZM402.587 65L399.97 66.4674L400.83 68H402.587V65ZM389.717 42.05V39.05H384.595L387.1 43.5174L389.717 42.05ZM408.167 42.05L410.775 40.5671L409.912 39.05H408.167V42.05ZM421.217 65V68H426.374L423.825 63.5171L421.217 65ZM385.307 42.68L382.916 44.4926L386.929 49.7843L388.247 43.2756L385.307 42.68ZM379.097 34.49V31.49H373.057L376.706 36.3026L379.097 34.49ZM406.727 31.7L408.684 33.9733V33.9733L406.727 31.7ZM407.357 17.93L405.597 20.3598L407.357 17.93ZM382.877 16.04L380.886 13.7954L374.972 19.04H382.877V16.04ZM392.417 7.58L395.357 8.17559L397.138 -0.616446L390.426 5.33544L392.417 7.58ZM366.018 65.5883L378.618 2.58834L372.735 1.41165L360.135 64.4117L366.018 65.5883ZM375.677 5H402.587V-1H375.677V5ZM402.587 5C410.294 5 415.765 6.68862 419.421 9.64322L423.192 4.97677C418.088 0.85137 411.08 -1 402.587 -1V5ZM419.436 9.65569C423.078 12.5591 424.967 16.5693 424.967 22.07H430.967C430.967 14.9707 428.415 9.14088 423.177 4.9643L419.436 9.65569ZM424.967 22.07C424.967 26.839 423.809 30.8754 421.583 34.2924L426.61 37.5676C429.544 33.0646 430.967 27.861 430.967 22.07H424.967ZM421.577 34.3019C419.399 37.6728 416.262 40.3473 412.04 42.2961L414.554 47.7439C419.691 45.3727 423.755 41.9872 426.616 37.5581L421.577 34.3019ZM412.04 42.2961C407.835 44.2368 402.762 45.26 396.737 45.26V51.26C403.432 51.26 409.399 50.1232 414.554 47.7439L412.04 42.2961ZM396.737 45.26H376.307V51.26H396.737V45.26ZM378.194 50.5917L387.644 42.9417L383.869 38.2783L374.419 45.9283L378.194 50.5917ZM382.815 40.0237L377.955 64.4137L383.839 65.5863L388.699 41.1963L382.815 40.0237ZM380.897 62H363.077V68H380.897V62ZM405.203 63.5326L392.333 40.5826L387.1 43.5174L399.97 66.4674L405.203 63.5326ZM389.717 45.05H408.167V39.05H389.717V45.05ZM405.559 43.5329L418.609 66.4829L423.825 63.5171L410.775 40.5671L405.559 43.5329ZM421.217 62H402.587V68H421.217V62ZM387.697 40.8674L381.487 32.6774L376.706 36.3026L382.916 44.4926L387.697 40.8674ZM379.097 37.49H397.547V31.49H379.097V37.49ZM397.547 37.49C401.947 37.49 405.801 36.4565 408.684 33.9733L404.769 29.4267C403.333 30.6635 401.067 31.49 397.547 31.49V37.49ZM408.684 33.9733C411.639 31.4293 412.967 27.882 412.967 23.78H406.967C406.967 26.518 406.135 28.2507 404.769 29.4267L408.684 33.9733ZM412.967 23.78C412.967 20.4252 411.816 17.4552 409.116 15.5002L405.597 20.3598C406.377 20.9248 406.967 21.8548 406.967 23.78H412.967ZM409.116 15.5002C406.68 13.736 403.545 13.04 400.067 13.04V19.04C402.829 19.04 404.553 19.604 405.597 20.3598L409.116 15.5002ZM400.067 13.04H382.877V19.04H400.067V13.04ZM384.867 18.2846L394.407 9.82456L390.426 5.33544L380.886 13.7954L384.867 18.2846ZM389.476 6.9844L382.366 42.0844L388.247 43.2756L395.357 8.17559L389.476 6.9844ZM444.749 65L441.806 64.4155L441.094 68H444.749V65ZM450.059 38.27L453.011 37.7333L447.116 37.6855L450.059 38.27ZM452.039 49.16L449.252 50.2714L454.991 48.6233L452.039 49.16ZM433.229 2V-1H428.803L430.442 3.11142L433.229 2ZM451.139 2L453.929 0.898497L453.18 -1H451.139V2ZM464.639 36.2L464.664 39.1999L469.034 39.1641L467.429 35.0985L464.639 36.2ZM453.659 36.29L451.32 34.4114L447.36 39.3417L453.684 39.2899L453.659 36.29ZM481.199 2V-1H479.761L478.86 0.121422L481.199 2ZM499.289 2L501.638 3.86532L505.501 -1H499.289V2ZM461.849 49.16L459.224 47.7068L464.198 51.0253L461.849 49.16ZM467.879 38.27L470.821 38.8545L465.254 36.8168L467.879 38.27ZM462.569 65V68H465.032L465.511 65.5845L462.569 65ZM447.691 65.5845L453.001 38.8545L447.116 37.6855L441.806 64.4155L447.691 65.5845ZM447.107 38.8067L449.087 49.6967L454.991 48.6233L453.011 37.7333L447.107 38.8067ZM454.825 48.0486L436.015 0.888575L430.442 3.11142L449.252 50.2714L454.825 48.0486ZM433.229 5H451.139V-1H433.229V5ZM448.348 3.1015L461.848 37.3015L467.429 35.0985L453.929 0.898497L448.348 3.1015ZM464.614 33.2001L453.634 33.2901L453.684 39.2899L464.664 39.1999L464.614 33.2001ZM455.998 38.1686L483.538 3.87857L478.86 0.121422L451.32 34.4114L455.998 38.1686ZM481.199 5H499.289V-1H481.199V5ZM496.939 0.134672L459.499 47.2947L464.198 51.0253L501.638 3.86532L496.939 0.134672ZM464.473 50.6132L470.503 39.7232L465.254 36.8168L459.224 47.7068L464.473 50.6132ZM464.936 37.6855L459.626 64.4155L465.511 65.5845L470.821 38.8545L464.936 37.6855ZM462.569 62H444.749V68H462.569V62Z" fill="#009245"/>
</svg>
