<svg width="85" height="82" viewBox="0 0 85 82" fill="none" xmlns="http://www.w3.org/2000/svg">
<path d="M19.2352 43.2888C19.0203 43.7492 18.7213 44.1356 18.338 44.4473C17.9539 44.7598 17.4958 44.9982 16.9638 45.1635C16.4318 45.328 15.8415 45.4106 15.1938 45.4106C14.2847 45.4106 13.393 45.254 12.5178 44.9416C11.6426 44.6291 10.8477 44.149 10.1315 43.5013L11.6828 41.6439C12.2282 42.087 12.7878 42.4396 13.3615 42.7009C13.9353 42.9622 14.5633 43.0928 15.2449 43.0928C15.7903 43.0928 16.2138 42.9937 16.5144 42.7945C16.815 42.5962 16.9662 42.32 16.9662 41.9681V41.9343C16.9662 41.7635 16.9347 41.6132 16.8725 41.4825C16.8095 41.3519 16.6899 41.2299 16.5136 41.1158C16.3373 41.0025 16.0918 40.8883 15.7785 40.775C15.4653 40.6617 15.0576 40.542 14.557 40.4169C13.9534 40.2697 13.4064 40.1044 12.9161 39.9226C12.4257 39.7408 12.0102 39.5165 11.6686 39.2497C11.327 38.9829 11.0618 38.6508 10.8737 38.2525C10.6856 37.8551 10.5919 37.3608 10.5919 36.7698V36.7359C10.5919 36.1905 10.6935 35.6994 10.8965 35.2618C11.0996 34.8242 11.3845 34.4464 11.7513 34.1285C12.118 33.8105 12.5564 33.5657 13.0656 33.3957C13.5748 33.225 14.1368 33.14 14.7499 33.14C15.6243 33.14 16.4286 33.2706 17.1613 33.5319C17.8941 33.7932 18.5678 34.1686 19.1809 34.6566L17.8177 36.6336C17.2833 36.27 16.7607 35.9835 16.25 35.7726C15.7384 35.5625 15.2276 35.457 14.716 35.457C14.2044 35.457 13.8212 35.5569 13.5654 35.7553C13.3096 35.9544 13.1821 36.2015 13.1821 36.4967V36.5305C13.1821 36.7241 13.2191 36.891 13.2931 37.0334C13.367 37.1759 13.5008 37.3034 13.6944 37.4167C13.8881 37.53 14.1533 37.6379 14.4894 37.7402C14.8254 37.8425 15.2496 37.9613 15.7628 38.0983C16.3664 38.2573 16.9048 38.4367 17.3778 38.635C17.8508 38.8342 18.249 39.0726 18.5741 39.3505C18.8983 39.6291 19.1439 39.9557 19.3092 40.3303C19.4744 40.705 19.5571 41.1544 19.5571 41.6769V41.7108C19.5571 42.3019 19.45 42.8268 19.2352 43.2872V43.2888Z" fill="#FF0000"/>
<path d="M27.1276 43.2085C26.8143 43.1621 26.5208 43.0755 26.2461 42.9512C26.1768 42.9197 26.1092 42.8866 26.0431 42.8512C26.0423 43.2495 26.0525 43.6595 26.0525 44.1002C25.2497 43.6902 24.7972 43.1157 24.761 42.3263C24.7515 42.1138 24.7452 41.9013 24.7397 41.6888C24.5862 41.4621 24.458 41.215 24.3549 40.9489C24.1786 40.494 24.0912 40.0116 24.0912 39.5V39.4662C24.0912 38.9546 24.1786 38.4745 24.3549 38.0259C24.4383 37.8126 24.5374 37.6119 24.6516 37.423C23.7677 37.1342 23.7386 37.0421 23.6394 36.3613C24.173 36.2204 24.6602 36.5006 24.9034 37.0578C24.9617 36.9831 25.0231 36.9107 25.0876 36.8398C25.2773 36.632 25.4921 36.4518 25.729 36.2983C25.2899 35.5758 24.6453 35.261 23.5938 35.1863C23.4962 35.1792 23.3789 35.0871 23.3057 34.9895C23.2514 35.0391 23.1979 35.091 23.1452 35.143C22.8689 35.42 22.6218 35.7183 22.4038 36.0386C22.1795 36.3707 21.9859 36.7249 21.8237 37.1027C21.505 37.8472 21.3468 38.6453 21.3468 39.4976V39.5323C21.3468 40.3839 21.5034 41.1827 21.8159 41.9264C22.1283 42.671 22.5659 43.3187 23.1287 43.8696C23.6906 44.4206 24.358 44.8582 25.1309 45.1824C25.4032 45.2965 25.6849 45.391 25.9754 45.4642C26.3453 45.5586 26.7301 45.62 27.1292 45.6483V45.546C27.1276 44.7669 27.1276 43.9861 27.1284 43.2077L27.1276 43.2085ZM33.5569 37.0712C33.3916 36.6761 33.1901 36.3086 32.9532 35.9678C32.7447 35.6671 32.5086 35.387 32.2449 35.128C32.1874 35.0729 32.1308 35.0178 32.071 34.9651C32.0655 34.9801 32.0584 34.9958 32.0513 35.0115C32.0112 35.1013 31.853 35.1847 31.7428 35.1926C30.6881 35.2602 30.0436 35.5782 29.6036 36.3109C29.8484 36.4668 30.0695 36.6486 30.2679 36.8587C30.3253 36.9177 30.3788 36.9791 30.43 37.0421C30.6417 36.5415 31.1257 36.2527 31.6877 36.3424C31.6357 37.0051 31.5051 37.1948 30.7047 37.423C30.8267 37.619 30.9313 37.8283 31.0179 38.0519C31.1934 38.5068 31.2816 38.99 31.2816 39.5008V39.5354C31.2816 40.0462 31.1934 40.5263 31.0179 40.9749C30.9054 41.2606 30.7668 41.5235 30.5992 41.7659C30.5976 41.8989 30.5968 42.0311 30.5953 42.1641C30.5835 43.0039 30.0766 43.75 29.2959 44.0428C29.2959 43.6493 29.3045 43.2699 29.299 42.8914C29.2502 42.9158 29.2014 42.9386 29.1511 42.9606C28.8551 43.0897 28.5419 43.1755 28.2113 43.218C28.2113 43.5139 28.2106 43.8098 28.2106 44.1042C28.2106 44.5929 28.2113 45.0825 28.2098 45.5712C28.2098 45.5972 28.209 45.6239 28.209 45.6499C28.6088 45.6216 28.9944 45.5602 29.3651 45.4658C29.6579 45.3926 29.9412 45.2989 30.2167 45.184C30.9943 44.8597 31.6649 44.4166 32.2268 43.8547C32.7895 43.2927 33.2303 42.6387 33.5474 41.895C33.8662 41.1504 34.0244 40.3524 34.0244 39.5V39.4662C34.0244 38.6138 33.8678 37.8158 33.5553 37.0712H33.5569ZM30.2427 33.816C29.9546 33.6948 29.6556 33.5964 29.3462 33.5209C29.0472 34.3197 29.0275 34.3252 28.1043 34.3252H27.1811C26.2674 34.3252 26.2091 34.326 25.9974 33.5358C25.7086 33.6098 25.4276 33.7027 25.1561 33.816C25.097 33.8412 25.0388 33.8656 24.9806 33.8924C25.0876 34.171 25.1797 34.4205 25.2804 34.6645C25.4677 35.1209 25.8014 35.3909 26.3067 35.3948C27.2165 35.4027 28.1271 35.4027 29.0369 35.394C29.5422 35.3901 29.8736 35.1194 30.0617 34.6621C30.1648 34.411 30.26 34.1552 30.3694 33.8703C30.3285 33.8522 30.286 33.8333 30.2443 33.816H30.2427Z" fill="#FF0000"/>
<path d="M44.7911 45.4445L38.8316 37.6221V45.4445H36.1596V33.14H38.6561L44.422 40.716V33.14H47.0939V45.4445H44.7911Z" fill="#FF0000"/>
<path d="M58.4398 44.8912C57.593 45.2603 56.6249 45.4453 55.5341 45.4453C54.6023 45.4453 53.753 45.2918 52.9865 44.9849C52.2199 44.6779 51.5604 44.2521 51.0094 43.7067C50.4585 43.1613 50.0296 42.5136 49.7226 41.7635C49.4157 41.0135 49.2622 40.1957 49.2622 39.3095V39.2757C49.2622 38.4233 49.418 37.6253 49.7313 36.8815C50.0437 36.1378 50.4782 35.4838 51.0354 34.9218C51.5918 34.3591 52.2514 33.916 53.0124 33.5925C53.7735 33.269 54.6086 33.1069 55.5176 33.1069C56.0512 33.1069 56.5376 33.1439 56.9744 33.2179C57.412 33.2919 57.8181 33.3965 58.1927 33.5335C58.5673 33.6696 58.9199 33.8404 59.2497 34.0451C59.5795 34.2497 59.8974 34.4826 60.2044 34.7439L58.5516 36.7383C58.3242 36.5455 58.0967 36.3747 57.87 36.2267C57.6426 36.0795 57.4073 35.9544 57.1625 35.8521C56.9177 35.7498 56.6541 35.6703 56.3699 35.6136C56.0858 35.5569 55.7734 35.5286 55.4326 35.5286C54.9556 35.5286 54.5094 35.6286 54.0946 35.8277C53.6798 36.0268 53.3162 36.2944 53.0038 36.6305C52.6913 36.9665 52.4473 37.3593 52.2711 37.8095C52.0948 38.2588 52.0066 38.7405 52.0066 39.2529V39.2867C52.0066 39.8337 52.0948 40.3374 52.2711 40.7986C52.4473 41.2598 52.6968 41.6612 53.0211 42.0028C53.3446 42.3444 53.7255 42.6088 54.1631 42.7969C54.6007 42.985 55.0863 43.0787 55.6199 43.0787C56.5966 43.0787 57.4206 42.8386 58.0912 42.3577V40.6412H55.4499V38.3745H60.631V43.5556C60.0171 44.0782 59.2875 44.5245 58.4406 44.8936L58.4398 44.8912Z" fill="#FF0000"/>
<path d="M66.4031 33.14H69.6669L74.8685 45.4445H71.2379L70.3477 43.2628H65.6349L64.7621 45.4445H61.2016L66.4031 33.14ZM69.3702 40.6278L68.0087 37.1546L66.6298 40.6278H69.3702Z" fill="#FF0000"/>
<path d="M34.255 33.6956C34.2149 33.3973 33.9607 33.2564 33.6608 33.2863C32.7022 33.3831 31.8026 33.14 30.9156 32.8251C30.7755 32.7756 30.626 32.7102 30.5189 32.6103C28.7772 30.9709 26.6751 31.1511 24.957 32.5072C24.7665 32.6575 24.5335 32.7677 24.3037 32.8566C23.4616 33.1864 22.5943 33.3587 21.6805 33.2911C21.3051 33.2635 21.0517 33.5099 21.0462 33.8137C21.0391 34.1143 21.2846 34.363 21.664 34.352C21.9662 34.3433 22.0394 34.4968 22.0969 34.7353C22.2015 35.1697 22.2968 35.6073 22.4038 36.041C22.4975 36.4227 22.5998 36.8005 22.7233 37.1719C22.8367 37.5119 23.172 37.7764 23.3978 38.081C23.4931 38.2093 23.6308 38.3509 23.6363 38.4918C23.6631 39.1073 23.6481 39.7235 23.6481 40.3398C23.6489 40.9426 23.6324 41.5455 23.652 42.1468C23.689 43.2353 24.1455 44.1144 25.0317 44.7574C25.2466 44.9132 25.4646 45.0706 25.6976 45.1966C25.8329 45.2698 25.9211 45.3571 25.9746 45.465C26.0273 45.5688 26.0494 45.6924 26.0517 45.8404C26.0698 46.8289 26.7963 47.575 27.6888 47.564C28.5624 47.5538 29.2739 46.8124 29.2849 45.8435C29.2864 45.6908 29.3124 45.5681 29.3667 45.4642C29.4297 45.3453 29.5304 45.2548 29.6752 45.1777C29.8232 45.099 29.9554 44.9912 30.0963 44.9014C31.1769 44.2088 31.6964 43.2164 31.6924 41.939C31.6893 40.8049 31.6956 39.67 31.6885 38.5359C31.6869 38.3053 31.7719 38.1959 31.96 38.0432C32.2378 37.8212 32.5102 37.5056 32.618 37.1751C32.747 36.7784 32.8557 36.3731 32.9548 35.967C33.0579 35.5451 33.1532 35.1201 33.2523 34.6967C33.3098 34.4559 33.4027 34.3323 33.6734 34.3528C33.8017 34.363 33.9937 34.3276 34.0575 34.241C34.1692 34.0875 34.2802 33.868 34.2566 33.6948L34.255 33.6956ZM26.0486 33.0738C26.9167 32.3915 28.2806 32.3521 29.2054 32.9605C29.3872 33.0809 29.4738 33.1801 29.3801 33.4304C29.3683 33.4626 29.3573 33.4925 29.3455 33.5209C29.0464 34.3197 29.0267 34.3252 28.1035 34.3252H27.1803C26.2666 34.3252 26.2083 34.326 25.9966 33.5358C25.9833 33.4855 25.9699 33.4327 25.9549 33.3753C25.9313 33.2863 25.9785 33.1281 26.0494 33.0738H26.0486ZM23.6395 36.3621C24.1731 36.2212 24.6602 36.5014 24.9034 37.0586C24.9664 37.2042 25.0136 37.3671 25.0404 37.5466C24.8948 37.5009 24.7665 37.46 24.6516 37.423C23.7677 37.1342 23.7386 37.0421 23.6395 36.3613V36.3621ZM28.1893 45.9458C28.1382 46.2307 27.9981 46.4558 27.6793 46.4629C27.359 46.4684 27.2102 46.2496 27.1544 45.9647C27.1339 45.8624 27.13 45.7554 27.1292 45.6499V45.5476C27.1276 44.7684 27.1276 43.9877 27.1284 43.2093V42.656C27.1284 42.6285 27.1276 42.6009 27.1284 42.5718C27.1355 42.039 27.3354 41.7147 27.6604 41.7061C27.991 41.6982 28.2066 42.0256 28.2114 42.5529C28.2129 42.7749 28.2129 42.996 28.2129 43.2172C28.2129 43.5131 28.2121 43.809 28.2121 44.1034C28.2121 44.5921 28.2129 45.0817 28.2114 45.5704C28.2114 45.5964 28.2106 45.6231 28.2106 45.6491C28.2098 45.7483 28.2066 45.8482 28.1893 45.9458ZM30.5961 42.1625C30.5843 43.0023 30.0774 43.7484 29.2967 44.0412C29.2967 43.6477 29.3053 43.2683 29.2998 42.8898C29.2983 42.7686 29.2959 42.6474 29.2912 42.5277C29.2802 42.2523 29.2597 41.9611 29.1652 41.7076C28.8756 40.9363 28.1696 40.5247 27.4164 40.6444C26.6971 40.7585 26.0974 41.418 26.0572 42.1964C26.0462 42.412 26.0423 42.6293 26.0423 42.8504C26.0415 43.2487 26.0517 43.6587 26.0517 44.0994C25.2489 43.6894 24.7964 43.1149 24.7602 42.3255C24.7508 42.113 24.7445 41.9005 24.7389 41.688C24.7193 40.7278 24.746 39.7637 24.7468 38.8019C24.7476 38.7649 24.772 38.7287 24.8011 38.6508C25.5071 38.9325 26.2076 39.2001 26.8986 39.4906C27.4196 39.7109 27.9209 39.7094 28.442 39.4898C29.133 39.1994 29.8327 38.9318 30.5977 38.6264V39.8967C30.5977 40.5184 30.6024 41.141 30.5992 41.7635C30.5977 41.8965 30.5969 42.0287 30.5953 42.1618L30.5961 42.1625ZM30.7055 37.4222C30.5914 37.4545 30.4631 37.4875 30.3206 37.523C30.3316 37.3475 30.3702 37.1853 30.4308 37.0413C30.6425 36.5407 31.1265 36.2519 31.6885 36.3416C31.6365 37.0043 31.5059 37.194 30.7055 37.4222ZM32.0529 35.0115C32.0127 35.1013 31.8545 35.1847 31.7444 35.1925C30.6897 35.2602 30.0452 35.5782 29.6052 36.3109C29.4714 36.5337 29.3565 36.7942 29.255 37.098C29.2329 37.1633 29.1912 37.2286 29.1857 37.2947C29.1235 38.1069 28.5144 38.3438 27.8737 38.5437C27.4046 38.6901 26.45 38.1896 26.3012 37.7315C26.232 37.519 26.1556 37.3081 26.0848 37.0964C25.9817 36.7879 25.8652 36.525 25.729 36.3007C25.2899 35.5782 24.6453 35.2634 23.5938 35.1886C23.4962 35.1815 23.3789 35.0894 23.3058 34.9919C23.2892 34.9706 23.2758 34.9494 23.264 34.9281C23.1838 34.7746 23.1751 34.5826 23.1271 34.3693C23.7378 34.1804 24.3313 33.997 24.9483 33.8074C24.9593 33.8357 24.9703 33.8656 24.9814 33.8931C25.0884 34.1718 25.1805 34.4213 25.2812 34.6652C25.4685 35.1217 25.8022 35.3917 26.3075 35.3956C27.2173 35.4035 28.1279 35.4035 29.0377 35.3948C29.543 35.3909 29.8744 35.1201 30.0625 34.6629C30.1656 34.4118 30.2608 34.156 30.3702 33.8711C30.3789 33.8499 30.3859 33.8294 30.3946 33.8081C31.003 33.9947 31.587 34.1733 32.2189 34.3669C32.1694 34.5763 32.145 34.7817 32.0733 34.9659C32.0678 34.9808 32.0608 34.9966 32.0537 35.0123L32.0529 35.0115Z" fill="#FF0000"/>
</svg>
